<?xml version="1.0" standalone="no"?><!DOCTYPE svg PUBLIC "-//W3C//DTD SVG 1.1//EN" "http://www.w3.org/Graphics/SVG/1.1/DTD/svg11.dtd"><svg t="1553435586237" class="icon" style="" viewBox="0 0 1024 1024" version="1.1" xmlns="http://www.w3.org/2000/svg" p-id="2318" data-spm-anchor-id="a313x.7781069.0.i9" xmlns:xlink="http://www.w3.org/1999/xlink" width="32" height="32"><defs><style type="text/css"></style></defs><path d="M253.4 638.1c-3.3 0-6.7-0.1-10.1-0.3l0.1-10c4.9-0.2 9.9-0.1 14.8 0.2l-0.2 10c-1.6 0-3.1 0.1-4.6 0.1z" fill="" p-id="2319"></path><path d="M505.6 973.1h-3.8c-44.5-4.8-84-34.5-103.2-77.4-10.8-24.2-14.4-50.6-10.2-76.1l0.1-0.5c1.1-4 2-8.2 2.7-12.3 4.9-28.3 1.2-57.1-10.5-83.4-22-49.3-69.3-82-123.2-85.4-4.3-0.3-8.6-0.4-12.9-0.2l-0.2 0.1h-0.9l-3.3 0.1-0.1-0.3c-33.3-2.4-65.5-13.4-93.3-32.1-29.5-19.9-52.8-47.6-67.3-80.2-16.8-37.7-21-78.8-12.1-119v-0.2c2-7.6 4.2-15.3 6.6-22.9C93.2 323 124.1 268.4 165.7 221c43.1-49 95.4-87.5 155.5-114.4 55.9-25 115-38.3 175.7-39.6 58.6-1.2 116.2 8.8 171.2 29.8 55 21 104.6 51.8 147.5 91.7 44.4 41.3 79.5 90.6 104.5 146.4 25 55.8 38.2 114.8 39.4 175.5 1.2 58.6-8.9 116.1-30 171.1-21 55-52 104.6-92 147.4-41.4 44.4-90.7 79.6-146.6 104.5-50.6 22.6-104 35.7-158.9 38.9-8.7 0.5-17.5 0.8-26.4 0.8z m-2.7-10.1c9.5 0.1 19.2-0.2 28.6-0.7 53.6-3.1 105.9-15.9 155.4-38C910.1 824.4 1010.7 561.9 911 339 811.3 116 548.6 15.9 325.3 115.7 210 167.3 121.9 265.9 83.5 386.2c-2.3 7.4-4.5 14.9-6.5 22.3-8.4 38-4.5 77 11.5 112.6 27.6 61.8 86.6 102.5 154.1 106.5l0.9-0.4 1 0.4c4.6-0.1 9.1 0 13.7 0.3 57.7 3.6 108.2 38.6 131.7 91.3 12.6 28.1 16.5 59 11.3 89.2-0.7 4.3-1.7 8.6-2.8 12.9-3.8 23.6-0.5 47.8 9.5 70.2 17.7 39.7 54.1 67.1 95 71.5z" fill="" p-id="2320"></path><path d="M547.9 513.5m-162.6 0a162.6 162.6 0 1 0 325.2 0 162.6 162.6 0 1 0-325.2 0Z" fill="#F7D02F" p-id="2321"></path><path d="M548.1 681.1c-64.1 0-125.4-37-153.2-99.2-37.7-84.4 0.2-183.7 84.6-221.4 40.9-18.3 86.4-19.5 128.2-3.6 41.8 16 74.9 47.3 93.2 88.1 18.3 40.9 19.5 86.4 3.6 128.2-16 41.8-47.3 74.9-88.2 93.2-22.2 10-45.4 14.7-68.2 14.7z m-0.3-325.3c-21.9 0-43.7 4.6-64.3 13.8-79.3 35.5-115 128.9-79.5 208.2 35.5 79.3 128.9 115 208.2 79.5 38.4-17.2 67.9-48.3 82.9-87.6s13.8-82.1-3.3-120.6c-17.2-38.4-48.3-67.9-87.6-82.9-18.4-6.9-37.4-10.4-56.4-10.4z" fill="" p-id="2322"></path></svg>